<svg xmlns="http://www.w3.org/2000/svg" width="256" height="256" viewBox="0 0 100 100"><rect width="100" height="100" rx="20" fill="#7d6ee7"></rect><path fill="#fff" d="M25.75 72.41L25.75 72.41Q31.78 72.41 34.88 69.67Q37.98 66.92 37.98 62.60L37.98 62.60Q37.98 58.82 35.60 56.48Q33.22 54.14 28.09 52.61L28.09 52.61L20.26 50.27Q14.50 48.56 11.21 45.23Q7.93 41.90 7.93 36.23L7.93 36.23Q7.93 32.81 9.23 30.06Q10.54 27.32 12.97 25.43Q15.40 23.54 18.77 22.51Q22.14 21.47 26.38 21.47L26.38 21.47Q29.98 21.47 33.08 22.05Q36.19 22.64 38.48 23.68Q40.77 24.71 42.04 25.97Q43.30 27.23 43.30 28.58L43.30 28.58Q43.30 29.84 42.66 30.74Q42.04 31.64 41.05 32.18L41.05 32.18Q38.70 30.38 34.97 29.03Q31.23 27.68 26.64 27.68L26.64 27.68Q21.34 27.68 18.32 29.93Q15.31 32.18 15.31 36.23L15.31 36.23Q15.31 39.38 17.47 41.36Q19.63 43.34 24.67 44.78L24.67 44.78L30.16 46.40Q37.27 48.47 41.36 52.20Q45.45 55.94 45.45 62.60L45.45 62.60Q45.45 69.71 40.33 74.12Q35.20 78.53 25.75 78.53L25.75 78.53Q21.61 78.53 18.23 77.81Q14.86 77.09 12.47 75.92Q10.09 74.75 8.78 73.36Q7.48 71.96 7.48 70.61L7.48 70.61Q7.48 69.08 8.42 68.05Q9.37 67.01 10.63 66.56L10.63 66.56Q11.62 67.55 13.06 68.58Q14.50 69.62 16.39 70.47Q18.28 71.33 20.62 71.87Q22.96 72.41 25.75 72.41ZM72.81 72.41L72.81 72.41Q78.84 72.41 81.95 69.67Q85.06 66.92 85.06 62.60L85.06 62.60Q85.06 58.82 82.67 56.48Q80.28 54.14 75.16 52.61L75.16 52.61L67.33 50.27Q61.56 48.56 58.28 45.23Q55.00 41.90 55.00 36.23L55.00 36.23Q55.00 32.81 56.30 30.06Q57.61 27.32 60.04 25.43Q62.47 23.54 65.84 22.51Q69.22 21.47 73.44 21.47L73.44 21.47Q77.05 21.47 80.15 22.05Q83.25 22.64 85.55 23.68Q87.84 24.71 89.11 25.97Q90.37 27.23 90.37 28.58L90.37 28.58Q90.37 29.84 89.73 30.74Q89.11 31.64 88.12 32.18L88.12 32.18Q85.78 30.38 82.04 29.03Q78.31 27.68 73.72 27.68L73.72 27.68Q68.41 27.68 65.39 29.93Q62.38 32.18 62.38 36.23L62.38 36.23Q62.38 39.38 64.53 41.36Q66.69 43.34 71.73 44.78L71.73 44.78L77.22 46.40Q84.34 48.47 88.43 52.20Q92.53 55.94 92.53 62.60L92.53 62.60Q92.53 69.71 87.40 74.12Q82.27 78.53 72.81 78.53L72.81 78.53Q68.67 78.53 65.30 77.81Q61.93 77.09 59.54 75.92Q57.16 74.75 55.85 73.36Q54.55 71.96 54.55 70.61L54.55 70.61Q54.55 69.08 55.49 68.05Q56.44 67.01 57.70 66.56L57.70 66.56Q58.69 67.55 60.13 68.58Q61.56 69.62 63.45 70.47Q65.34 71.33 67.69 71.87Q70.03 72.41 72.81 72.41Z"></path></svg>